<?xml version="1.0" encoding="iso-8859-1"?>
<!-- Generator: Adobe Illustrator 16.0.0, SVG Export Plug-In . SVG Version: 6.00 Build 0)  -->
<!DOCTYPE svg PUBLIC "-//W3C//DTD SVG 1.1//EN" "http://www.w3.org/Graphics/SVG/1.1/DTD/svg11.dtd">
<svg version="1.1" id="Capa_1" xmlns="http://www.w3.org/2000/svg" xmlns:xlink="http://www.w3.org/1999/xlink" x="0px" y="0px"
	 width="55.667px" height="55.667px" viewBox="0 0 55.667 55.667" style="enable-background:new 0 0 55.667 55.667;"
	 xml:space="preserve">
<g>
	<g>
		<g>
			<path d="M52.667,12.333H3c-1.657,0-3,1.007-3,2.25c0,0,0,0.504,0,1.125s1.343,1.125,3,1.125h49.667c1.657,0,3-0.503,3-1.124
				c0-0.331,0-0.716,0-1.126C55.667,13.34,54.324,12.333,52.667,12.333z"/>
		</g>
	</g>
	<path d="M0,26.5v13.833c0,1.657,1.343,3,3,3h49.667c1.657,0,3-1.343,3-3V26.5c0-1.657-1.343-3-3-3H3C1.343,23.5,0,24.843,0,26.5z
		 M16.708,32h-13c-0.829,0-1.5-0.671-1.5-1.5s0.671-1.5,1.5-1.5h13c0.829,0,1.5,0.671,1.5,1.5C18.208,31.329,17.537,32,16.708,32z
		 M34.375,32h-13c-0.829,0-1.5-0.671-1.5-1.5s0.671-1.5,1.5-1.5h13c0.829,0,1.5,0.671,1.5,1.5C35.875,31.329,35.204,32,34.375,32z
		 M48.875,40.167h-6.167c-1.657,0-3-1.157-3-2.583s1.343-2.583,3-2.583h6.167c1.657,0,3,1.157,3,2.583S50.532,40.167,48.875,40.167z
		 M52.041,32h-13c-0.829,0-1.5-0.671-1.5-1.5s0.671-1.5,1.5-1.5h13c0.829,0,1.5,0.671,1.5,1.5C53.541,31.329,52.87,32,52.041,32z"/>
</g>
<g>
</g>
<g>
</g>
<g>
</g>
<g>
</g>
<g>
</g>
<g>
</g>
<g>
</g>
<g>
</g>
<g>
</g>
<g>
</g>
<g>
</g>
<g>
</g>
<g>
</g>
<g>
</g>
<g>
</g>
</svg>
